<svg xmlns="http://www.w3.org/2000/svg" width="512.886" height="368.68" viewBox="0 0 512.886 368.68">
  <g id="Group_85" data-name="Group 85" transform="translate(1381.876 -1523.418) rotate(90)" opacity="0.45">
    <text id="C" transform="translate(1864.399 1295.351) rotate(152)" font-size="61" font-family="Montserrat-Regular, Montserrat" letter-spacing="0.1em"><tspan x="0" y="0">C</tspan></text>
    <text id="H" transform="translate(1765.982 1354.609) rotate(-4)" font-size="60" font-family="Montserrat-Regular, Montserrat" letter-spacing="0.1em"><tspan x="0" y="0">H</tspan></text>
    <text id="A" transform="translate(1756.567 1325.162) rotate(-164)" font-size="61" font-family="Montserrat-Regular, Montserrat" letter-spacing="0.1em"><tspan x="0" y="0">A</tspan></text>
    <text id="R" transform="matrix(-0.799, -0.602, 0.602, -0.799, 1708.255, 1310.462)" font-size="61" font-family="Montserrat-Regular, Montserrat" letter-spacing="0.1em"><tspan x="0" y="0">R</tspan></text>
    <text id="L" transform="translate(1662.26 1288.09) rotate(-141)" font-size="58" font-family="Montserrat-Regular, Montserrat" letter-spacing="0.1em"><tspan x="0" y="0">L</tspan></text>
    <text id="O" transform="translate(1586.349 1283.231) rotate(-28)" font-size="61" font-family="Montserrat-Regular, Montserrat" letter-spacing="0.1em"><tspan x="0" y="0">O</tspan></text>
    <text id="T" transform="translate(1604.172 1216.036) rotate(-118)" font-size="60" font-family="Montserrat-Regular, Montserrat" letter-spacing="0.1em"><tspan x="0" y="0">T</tspan></text>
    <text id="T-2" data-name="T" transform="translate(1588.348 1174.826) rotate(-100)" font-size="60" font-family="Montserrat-Regular, Montserrat" letter-spacing="0.1em"><tspan x="0" y="0">T</tspan></text>
    <text id="E" transform="translate(1582.096 1136.835) rotate(-84)" font-size="61" font-family="Montserrat-Regular, Montserrat" letter-spacing="0.1em"><tspan x="0" y="0">E</tspan></text>
    <text id="B" transform="translate(1592.485 1056.474) rotate(-65)" font-size="61" font-family="Montserrat-Regular, Montserrat" letter-spacing="0.1em"><tspan x="0" y="0">B</tspan></text>
    <text id="O-2" data-name="O" transform="translate(1605.218 1007.661) rotate(-28)" font-size="61" font-family="Montserrat-Regular, Montserrat" letter-spacing="0.1em"><tspan x="0" y="0">O</tspan></text>
    <text id="N" transform="translate(1653.023 972.008) rotate(-28)" font-size="60" font-family="Montserrat-Regular, Montserrat" letter-spacing="0.1em"><tspan x="0" y="0">N</tspan></text>
    <text id="N-2" data-name="N" transform="translate(1709.571 941.719) rotate(-12)" font-size="60" font-family="Montserrat-Regular, Montserrat" letter-spacing="0.1em"><tspan x="0" y="0">N</tspan></text>
    <text id="É" transform="translate(1765.6 927.551) rotate(7)" font-size="61" font-family="Montserrat-Regular, Montserrat" letter-spacing="0.1em"><tspan x="0" y="0">É</tspan></text>
    <text id="N-3" data-name="N" transform="translate(1812.479 934.845) rotate(13)" font-size="60" font-family="Montserrat-Regular, Montserrat" letter-spacing="0.1em"><tspan x="0" y="0">N</tspan></text>
  </g>
</svg>
